HIERARCHY
ROOT Hips
{
  OFFSET -4.35178 90.3298 111.633
  CHANNELS 6 Xposition Yposition Zposition Zrotation Xrotation Yrotation
  JOINT LeftUpLeg
  {
    OFFSET 0.103456 1.85784 10.5485
    CHANNELS 6 Xposition Yposition Zposition Zrotation Xrotation Yrotation
    JOINT LeftLeg
    {
      OFFSET 43.5 -4.2e-05 0
      CHANNELS 6 Xposition Yposition Zposition Zrotation Xrotation Yrotation
      JOINT LeftFoot
      {
        OFFSET 42.3722 1.9e-05 0
        CHANNELS 6 Xposition Yposition Zposition Zrotation Xrotation Yrotation
        JOINT LeftToe
        {
          OFFSET 17.3 0 0
          CHANNELS 6 Xposition Yposition Zposition Zrotation Xrotation Yrotation
          End Site
          {
            OFFSET 0 0 0
          }
        }
      }
    }
  }
  JOINT RightUpLeg
  {
    OFFSET 0.103456 1.85782 -10.5485
    CHANNELS 6 Xposition Yposition Zposition Zrotation Xrotation Yrotation
    JOINT RightLeg
    {
      OFFSET 43.5 -2.7e-05 0
      CHANNELS 6 Xposition Yposition Zposition Zrotation Xrotation Yrotation
      JOINT RightFoot
      {
        OFFSET 42.3723 0 0
        CHANNELS 6 Xposition Yposition Zposition Zrotation Xrotation Yrotation
        JOINT RightToe
        {
          OFFSET 17.3 0 1.7e-05
          CHANNELS 6 Xposition Yposition Zposition Zrotation Xrotation Yrotation
          End Site
          {
            OFFSET 0 0 0
          }
        }
      }
    }
  }
  JOINT Spine
  {
    OFFSET 6.90197 -2.60373 0
    CHANNELS 6 Xposition Yposition Zposition Zrotation Xrotation Yrotation
    JOINT Spine1
    {
      OFFSET 12.5881 0 0
      CHANNELS 6 Xposition Yposition Zposition Zrotation Xrotation Yrotation
      JOINT Spine2
      {
        OFFSET 12.3432 -1.8e-05 0
        CHANNELS 6 Xposition Yposition Zposition Zrotation Xrotation Yrotation
        JOINT Neck
        {
          OFFSET 25.8329 2.3e-05 0
          CHANNELS 6 Xposition Yposition Zposition Zrotation Xrotation Yrotation
          JOINT Head
          {
            OFFSET 11.7666 0 0
            CHANNELS 6 Xposition Yposition Zposition Zrotation Xrotation Yrotation
            End Site
            {
              OFFSET 0 0 0
            }
          }
        }
        JOINT LeftShoulder
        {
          OFFSET 19.7459 -1.48035 6.0001
          CHANNELS 6 Xposition Yposition Zposition Zrotation Xrotation Yrotation
          JOINT LeftArm
          {
            OFFSET 11.2841 1.8e-05 -2e-05
            CHANNELS 6 Xposition Yposition Zposition Zrotation Xrotation Yrotation
            JOINT LeftForeArm
            {
              OFFSET 33 -1.3e-05 1.9e-05
              CHANNELS 6 Xposition Yposition Zposition Zrotation Xrotation Yrotation
              JOINT LeftHand
              {
                OFFSET 25.2 3.2e-05 1.1e-05
                CHANNELS 6 Xposition Yposition Zposition Zrotation Xrotation Yrotation
                End Site
                {
                  OFFSET 0 0 0
                }
              }
            }
          }
        }
        JOINT RightShoulder
        {
          OFFSET 19.7461 -1.48036 -6.00008
          CHANNELS 6 Xposition Yposition Zposition Zrotation Xrotation Yrotation
          JOINT RightArm
          {
            OFFSET 11.2841 0 0
            CHANNELS 6 Xposition Yposition Zposition Zrotation Xrotation Yrotation
            JOINT RightForeArm
            {
              OFFSET 33.0001 1.6e-05 0
              CHANNELS 6 Xposition Yposition Zposition Zrotation Xrotation Yrotation
              JOINT RightHand
              {
                OFFSET 25.1998 0.000123 0.000432
                CHANNELS 6 Xposition Yposition Zposition Zrotation Xrotation Yrotation
                End Site
                {
                  OFFSET 0 0 0
                }
              }
            }
          }
        }
      }
    }
  }
}
MOTION
Frames:	10
Frame Time:	0.0333333
-67.159 144.288 78.416 -104.997 -68.3426 170.231 0.103456 1.85784 10.5485 -43.175 21.4263 179.098 43.5 -4.2e-05 1e-05 -73.7001 -10.8051 2.2142 42.3722 1.9e-05 0 92.5795 2.2599 13.2506 17.3 7.10543e-15 3e-06 21.4546 -1e-06 0.003093 0.103456 1.85782 -10.5485 -38.3913 -2.2911 164.101 43.5 -2.7e-05 4e-06 -97.1711 15.0297 3.36166 42.3723 0 1e-05 75.5818 -3.13045 -20.1051 17.3 -6e-06 1.7e-05 21.4546 -1.9e-05 -0.003116 6.90197 -2.60373 -3e-06 23.2612 -0.328781 -1.11145 12.5881 1e-05 8e-06 36.5136 -0.672334 -2.03657 12.3432 -1.8e-05 -5e-06 36.2065 -0.25772 -2.06105 25.8329 2.3e-05 7e-06 3.98313 2.67634 -6.11124 11.7666 -8e-06 -6e-06 -60.6588 -10.1478 12.6817 19.7459 -1.48035 6.0001 -175.618 19.5196 -118.186 11.2841 1.8e-05 -2e-05 21.6539 -55.0698 80.3414 33 -1.3e-05 1.9e-05 -65.5113 7.61078 -5.34086 25.2 3.2e-05 1.1e-05 -48.0643 41.6325 -1.94968 19.7461 -1.48036 -6.00008 -151.407 -26.1076 110.009 11.2841 7.10543e-15 -1e-06 -12.5933 33.5953 -21.9216 33.0001 1.6e-05 -1e-06 -52.1496 5.52491 21.267 25.1998 0.000123 0.000432 7.85872 -17.6521 15.6385 
-66.7995 145.052 76.7215 -102.341 -67.1977 173.203 0.103456 1.85784 10.5485 -40.0512 20.9739 178.831 43.5 -4.2e-05 1e-05 -72.4356 -10.3049 1.14667 42.3722 1.9e-05 1.42109e-14 92.8894 1.19624 13.6821 17.3 0 3e-06 21.4546 -1e-06 0.003093 0.103456 1.85782 -10.5485 -40.3057 -1.40349 163.582 43.5 -2.7e-05 4e-06 -99.0393 14.5087 1.82375 42.3723 1.42109e-14 1e-05 80.0318 -2.25985 -17.5162 17.3 -6e-06 1.7e-05 21.4546 -1.9e-05 -0.003116 6.90197 -2.60373 -3e-06 22.8094 -0.319601 -1.27729 12.5881 1e-05 8e-06 35.6091 -0.724184 -2.36373 12.3432 -1.8e-05 -5e-06 35.3034 -0.342157 -2.37851 25.8329 2.3e-05 7e-06 5.30011 2.18257 -6.22349 11.7666 -8e-06 -6e-06 -60.6053 -11.1898 11.8793 19.7459 -1.48035 6.0001 -176.232 21.9632 -115.408 11.2841 1.8e-05 -2e-05 16.8295 -51.5441 76.8593 33 -1.3e-05 1.9e-05 -61.1553 10.302 -6.65463 25.2 3.2e-05 1.1e-05 -45.8813 40.4391 -1.75514 19.7461 -1.48036 -6.00008 -152.409 -27.3983 107.989 11.2841 1.42109e-14 -1e-06 -12.1384 28.0574 -27.1044 33.0001 1.6e-05 -1e-06 -49.8595 2.38424 21.5238 25.1998 0.000123 0.000432 8.05568 -18.5375 16.1604 
-66.0598 146.142 75.5942 -100.802 -66.1242 174.527 0.103456 1.85784 10.5485 -37.6889 20.3815 179.971 43.5 -4.2e-05 1e-05 -70.7321 -9.24435 -0.536973 42.3722 1.9e-05 0 92.4658 0.857334 14.2478 17.3 0 3e-06 21.4546 -1e-06 0.003093 0.103456 1.85782 -10.5485 -42.4504 -1.1662 164.206 43.5 -2.7e-05 4e-06 -97.9772 13.261 0.746461 42.3723 0 1e-05 82.154 0.219792 -16.9351 17.3 -6e-06 1.7e-05 21.4546 -1.9e-05 -0.003116 6.90197 -2.60373 -3e-06 22.4699 -0.282907 -1.40933 12.5881 1e-05 8e-06 34.929 -0.706597 -2.63645 12.3432 -1.8e-05 -5e-06 34.6234 -0.350919 -2.64752 25.8329 2.3e-05 7e-06 5.82753 2.39016 -6.34966 11.7666 -8e-06 -6e-06 -59.8977 -10.9037 12.265 19.7459 -1.48035 6.0001 -176.388 23.091 -115.202 11.2841 1.8e-05 -2e-05 16.4239 -48.8893 78.1063 33 -1.3e-05 1.9e-05 -56.7089 11.8122 -7.69199 25.2 3.2e-05 1.1e-05 -43.273 38.9993 -1.40359 19.7461 -1.48036 -6.00008 -152.431 -28.0674 105.97 11.2841 0 -1e-06 -12.4118 24.1022 -30.0145 33.0001 1.6e-05 -1e-06 -47.8845 1.23951 21.6322 25.1998 0.000123 0.000432 7.5772 -18.4671 15.8392 
-65.1262 147.212 74.5212 -100.232 -64.8875 175.018 0.103456 1.85784 10.5485 -35.6334 19.8758 -178.663 43.5 -4.2e-05 1e-05 -68.9296 -8.26917 -2.50574 42.3722 1.9e-05 0 91.8845 0.788454 14.786 17.3 0 3e-06 21.4546 -1e-06 0.003093 0.103456 1.85782 -10.5485 -44.5422 -1.1445 164.882 43.5 -2.7e-05 4e-06 -94.6477 11.6346 0.138125 42.3723 0 1e-05 83.721 3.58098 -17.846 17.3 -6e-06 1.7e-05 21.4546 -1.9e-05 -0.003116 6.90197 -2.60373 -3e-06 22.0748 -0.287769 -1.58189 12.5881 1e-05 8e-06 34.1377 -0.783947 -2.97205 12.3432 -1.8e-05 -5e-06 33.8336 -0.459921 -2.97284 25.8329 2.3e-05 7e-06 6.06819 2.51427 -6.55839 11.7666 -8e-06 -6e-06 -59.4188 -10.8697 12.351 19.7459 -1.48035 6.0001 -176.65 23.3905 -114.467 11.2841 1.8e-05 -2e-05 14.4516 -45.7071 77.4726 33 -1.3e-05 1.9e-05 -54.1437 11.3849 -8.02825 25.2 3.2e-05 1.1e-05 -39.2654 39.3971 -2.0721 19.7461 -1.48036 -6.00008 -153.001 -28.287 103.599 11.2841 0 -1e-06 -12.8929 21.6105 -32.9717 33.0001 1.6e-05 -1e-06 -46.3375 1.30043 21.5476 25.1998 0.000123 0.000432 7.72848 -17.616 14.9724 
-64.0987 148.376 73.3056 -99.9275 -63.806 175.266 0.103456 1.85784 10.5485 -33.2259 19.4035 -177.652 43.5 -4.2e-05 1e-05 -66.5635 -7.70152 -4.2538 42.3722 1.9e-05 0 91.3829 0.564391 15.059 17.3 0 3e-06 21.4546 -1e-06 0.003093 0.103456 1.85782 -10.5485 -45.7147 -1.26637 165.29 43.5 -2.7e-05 4e-06 -89.093 9.88864 0.251432 42.3723 1.42109e-14 1e-05 85.2117 6.89767 -19.3141 17.3 -6e-06 1.7e-05 21.4546 -1.9e-05 -0.003116 6.90197 -2.60373 -3e-06 21.5294 -0.290403 -1.77074 12.5881 1e-05 8e-06 33.0452 -0.860239 -3.34218 12.3432 -1.8e-05 -5e-06 32.7425 -0.57432 -3.33109 25.8329 2.3e-05 7e-06 6.93804 2.88821 -6.73171 11.7666 -8e-06 -6e-06 -58.5527 -10.7353 12.7023 19.7459 -1.48035 6.0001 -177.709 24.1488 -112.672 11.2841 1.8e-05 -2e-05 11.8417 -42.7924 76.5485 33 -1.3e-05 1.9e-05 -50.3188 13.7031 -9.80814 25.2 3.2e-05 1.1e-05 -39.5634 38.0116 -1.38308 19.7461 -1.48036 -6.00008 -153.68 -29.1098 100.603 11.2841 0 -1e-06 -13.483 18.8491 -35.3283 33.0001 1.6e-05 -1e-06 -44.549 1.76606 21.7839 25.1998 0.000123 0.000432 7.96912 -16.2227 13.7386 
-62.9704 149.65 72.7547 -101.072 -64.3925 173.985 0.103456 1.85784 10.5485 -31.7712 18.9592 -177.047 43.5 -4.2e-05 1e-05 -63.8259 -7.40251 -4.92931 42.3722 1.9e-05 1.42109e-14 89.9758 0.938335 14.8857 17.3 -7.10543e-15 3e-06 21.4546 -1e-06 0.003093 0.103456 1.85782 -10.5485 -46.2004 -1.31054 165.17 43.5 -2.7e-05 4e-06 -81.8314 7.89329 1.704 42.3723 0 1e-05 85.73 8.58337 -19.0342 17.3 -6e-06 1.7e-05 21.4546 -1.9e-05 -0.003116 6.90197 -2.60373 -3e-06 21.2 -0.490019 -1.56853 12.5881 1e-05 8e-06 32.389 -1.17061 -2.87525 12.3432 -1.8e-05 -5e-06 32.091 -0.864395 -2.84205 25.8329 2.3e-05 7e-06 6.76253 2.89149 -6.78775 11.7666 -8e-06 -6e-06 -57.9935 -10.3545 12.6445 19.7459 -1.48035 6.0001 -177.743 24.2739 -112.392 11.2841 1.8e-05 -2e-05 11.5354 -41.5354 76.8646 33 -1.3e-05 1.9e-05 -48.1083 13.3538 -10.1214 25.2 3.2e-05 1.1e-05 -37.714 36.8281 -0.959005 19.7461 -1.48036 -6.00008 -153.621 -28.6051 99.3465 11.2841 -1.42109e-14 -1e-06 -13.2154 19.1141 -37.7671 33.0001 1.6e-05 -1e-06 -43.7173 2.52983 21.732 25.1998 0.000123 0.000432 8.10491 -15.1369 12.6972 
-60.466 151.961 69.6379 -99.2145 -61.1646 175.798 0.103456 1.85784 10.5485 -24.4227 20.2762 -174.437 43.5 -4.2e-05 1e-05 -56.8557 -8.28104 -9.61936 42.3722 1.9e-05 0 89.3261 2.31632 13.7275 17.3 7.10543e-15 3e-06 21.4546 -1e-06 0.003093 0.103456 1.85782 -10.5485 -42.2003 -0.977347 167.996 43.5 -2.7e-05 4e-06 -70.6465 7.01894 0.235305 42.3723 0 1e-05 86.3467 9.98598 -14.785 17.3 -6e-06 1.7e-05 21.4546 -1.9e-05 -0.003116 6.90197 -2.60373 -3e-06 19.8706 -0.157058 -2.61518 12.5881 1e-05 8e-06 29.7184 -0.89094 -5.05372 12.3432 -1.8e-05 -5e-06 29.4155 -0.758336 -5.01971 25.8329 2.3e-05 7e-06 8.86456 4.73464 -6.71952 11.7666 -8e-06 -6e-06 -52.9225 -10.1217 15.343 19.7459 -1.48035 6.0001 176.758 22.1356 -106.252 11.2841 1.8e-05 -2e-05 0.395401 -32.2683 70.3683 33 -1.3e-05 1.9e-05 -44.0008 13.6581 -11.1691 25.2 3.2e-05 1.1e-05 -33.3508 37.6612 -1.89177 19.7461 -1.48036 -6.00008 -161.008 -33.3191 86.4 11.2841 0 -1e-06 -16.1495 8.34054 -36.9474 33.0001 1.6e-05 -1e-06 -39.1754 2.82075 22.8807 25.1998 0.000123 0.000432 8.3722 -13.9043 11.6627 
-59.1412 152.797 68.478 -100.035 -61.0258 174.819 0.103456 1.85784 10.5485 -22.6275 19.905 -174.079 43.5 -4.2e-05 1e-05 -54.4747 -8.74121 -10.103 42.3722 1.9e-05 0 88.5425 2.09784 13.4542 17.3 7.10543e-15 3e-06 21.4546 -1e-06 0.003093 0.103456 1.85782 -10.5485 -40.9396 -0.299478 169.117 43.5 -2.7e-05 4e-06 -62.4168 6.25142 0.150735 42.3723 1.42109e-14 1e-05 86.1647 11.1051 -10.9672 17.3 -6e-06 1.7e-05 21.4546 -1.9e-05 -0.003116 6.90197 -2.60373 -3e-06 19.1333 -0.144678 -2.53083 12.5881 1e-05 8e-06 28.2453 -0.822445 -4.90013 12.3432 -1.8e-05 -5e-06 27.9419 -0.701755 -4.86369 25.8329 2.3e-05 7e-06 8.78446 4.91715 -6.74547 11.7666 -8e-06 -6e-06 -51.2395 -9.68259 15.6288 19.7459 -1.48035 6.0001 175.77 20.648 -104.918 11.2841 1.8e-05 -2e-05 -0.975205 -30.3386 71.6115 33 -1.3e-05 1.9e-05 -40.8615 15.2174 -12.1532 25.2 3.2e-05 1.1e-05 -34.1441 35.7108 -0.495241 19.7461 -1.48036 -6.00008 -162.22 -32.1862 83.5193 11.2841 0 -1e-06 -16.3881 6.76409 -38.7016 33.0001 1.6e-05 -1e-06 -37.9914 3.25658 22.7419 25.1998 0.000123 0.000432 8.60656 -13.5381 11.2437 
-57.6943 153.522 67.319 -100.956 -61.2706 173.774 0.103456 1.85784 10.5485 -21.1256 19.4739 -173.856 43.5 -4.2e-05 1e-05 -52.4977 -9.25994 -10.2295 42.3722 1.9e-05 -2.84217e-14 87.7155 1.81661 13.295 17.3 -7.10543e-15 3e-06 21.4546 -1e-06 0.003093 0.103456 1.85782 -10.5485 -38.9291 0.505262 170.074 43.5 -2.7e-05 4e-06 -55.1197 6.15159 0.417203 42.3723 -1.42109e-14 1e-05 83.7869 11.6052 -10.0065 17.3 -6e-06 1.7e-05 21.4546 -1.9e-05 -0.003116 6.90197 -2.60373 -3e-06 18.4097 -0.142856 -2.38478 12.5881 1e-05 8e-06 26.8003 -0.756384 -4.62091 12.3432 -1.8e-05 -5e-06 26.4964 -0.639613 -4.58279 25.8329 2.3e-05 7e-06 8.71371 4.93141 -6.75024 11.7666 -8e-06 -6e-06 -49.4721 -9.23129 15.7664 19.7459 -1.48035 6.0001 175.29 19.0701 -103.777 11.2841 1.8e-05 -2e-05 -2.55886 -28.2843 72.1423 33 -1.3e-05 1.9e-05 -39.0362 15.0924 -12.2239 25.2 3.2e-05 1.1e-05 -33.4256 35.1183 -0.126258 19.7461 -1.48036 -6.00008 -163.34 -31.2069 81.2296 11.2841 0 -1e-06 -16.9134 5.03935 -39.6596 33.0001 1.6e-05 -1e-06 -36.7057 4.00565 22.3938 25.1998 0.000123 0.000432 8.71889 -13.0378 10.6291 
-56.1123 154.129 66.1016 -101.571 -62.0828 173.157 0.103456 1.85784 10.5485 -19.91 18.9437 -173.725 43.5 -4.2e-05 1e-05 -51.3838 -9.54318 -10.0539 42.3722 1.9e-05 1.42109e-14 86.1381 1.54819 13.1735 17.3 0 3e-06 21.4546 -1e-06 0.003093 0.103456 1.85782 -10.5485 -35.9952 1.30426 170.457 43.5 -2.7e-05 4e-06 -51.6598 6.47196 0.999428 42.3723 0 1e-05 83.8855 13.777 -10.8324 17.3 -6e-06 1.7e-05 21.4546 -1.9e-05 -0.003116 6.90197 -2.60373 -3e-06 17.6919 -0.150928 -2.23195 12.5881 1e-05 8e-06 25.3665 -0.711263 -4.3241 12.3432 -1.8e-05 -5e-06 25.0625 -0.59725 -4.28359 25.8329 2.3e-05 7e-06 8.68309 4.86068 -6.61862 11.7666 -8e-06 -6e-06 -47.3108 -8.87243 15.9372 19.7459 -1.48035 6.0001 174.928 17.3504 -102.682 11.2841 1.8e-05 -2e-05 -4.16801 -26.2333 72.6707 33 -1.3e-05 1.9e-05 -37.2385 14.9 -12.2252 25.2 3.2e-05 1.1e-05 -32.5677 34.8135 0.0792306 19.7461 -1.48036 -6.00008 -164.58 -30.3668 79.1793 11.2841 -2.84217e-14 -1e-06 -18.0517 2.38393 -39.8672 33.0001 1.6e-05 -1e-06 -35.6853 4.80599 21.6975 25.1998 0.000123 0.000432 8.85742 -12.9447 10.4131 
